<?xml version="1.0" standalone="no"?>
<!DOCTYPE svg PUBLIC "-//W3C//DTD SVG 20010904//EN"
 "http://www.w3.org/TR/2001/REC-SVG-20010904/DTD/svg10.dtd">
<svg version="1.0" xmlns="http://www.w3.org/2000/svg"
 width="100.000000pt" height="100.000000pt" viewBox="0 0 100.000000 100.000000"
 preserveAspectRatio="xMidYMid meet">

<g transform="translate(0.000000,100.000000) scale(0.100000,-0.100000)"
fill="#E5C07B" stroke="none">
<path d="M474 977 c-3 -8 -4 -41 -2 -73 3 -55 5 -59 28 -59 24 0 25 2 25 70 0
65 -2 70 -23 73 -12 2 -24 -3 -28 -11z"/>
<path d="M152 848 c-19 -19 -14 -31 32 -77 29 -29 50 -42 60 -38 34 13 29 38
-15 83 -46 46 -58 51 -77 32z"/>
<path d="M771 816 c-44 -45 -49 -70 -15 -83 11 -4 31 9 62 41 39 38 45 49 36
64 -19 29 -38 24 -83 -22z"/>
<path d="M392 714 c-91 -45 -138 -130 -130 -234 6 -77 46 -144 112 -185 44
-27 58 -30 126 -30 68 0 82 3 126 30 30 19 60 49 79 79 27 44 30 58 30 126 0
68 -3 82 -30 126 -66 106 -202 145 -313 88z m205 -70 c16 -12 39 -36 51 -55
20 -29 23 -44 20 -96 -4 -70 -23 -103 -79 -141 -29 -20 -44 -23 -96 -20 -70 4
-103 23 -141 79 -20 29 -23 44 -20 96 4 70 23 103 79 141 29 20 44 23 96 20
43 -3 72 -10 90 -24z"/>
<path d="M14 515 c-14 -36 3 -46 73 -43 65 3 68 4 68 28 0 24 -3 25 -68 28
-53 2 -68 0 -73 -13z"/>
<path d="M844 515 c-14 -36 3 -46 73 -43 65 3 68 4 68 28 0 24 -3 25 -68 28
-53 2 -68 0 -73 -13z"/>
<path d="M181 226 c-44 -45 -49 -70 -15 -83 11 -4 31 9 62 41 39 38 45 49 36
64 -19 29 -38 24 -83 -22z"/>
<path d="M742 258 c-19 -19 -14 -31 32 -77 29 -29 50 -42 60 -38 34 13 29 38
-15 83 -46 46 -58 51 -77 32z"/>
<path d="M474 147 c-3 -8 -4 -41 -2 -73 3 -55 5 -59 28 -59 24 0 25 2 25 70 0
65 -2 70 -23 73 -12 2 -24 -3 -28 -11z"/>
</g>
</svg>
