<?xml version="1.0" standalone="no"?>
<!DOCTYPE svg PUBLIC "-//W3C//DTD SVG 20010904//EN"
 "http://www.w3.org/TR/2001/REC-SVG-20010904/DTD/svg10.dtd">
<svg version="1.0" xmlns="http://www.w3.org/2000/svg"
 width="100.000000pt" height="100.000000pt" viewBox="0 0 100.000000 100.000000"
 preserveAspectRatio="xMidYMid meet">

<g transform="translate(0.000000,100.000000) scale(0.100000,-0.100000)"
fill="#E5C07B" stroke="none">
<path d="M724 967 c-9 -25 0 -62 16 -62 10 0 15 10 15 34 0 36 -21 54 -31 28z"/>
<path d="M584 909 c-3 -6 3 -21 15 -32 16 -16 23 -19 33 -9 9 9 7 16 -7 32
-20 23 -31 25 -41 9z"/>
<path d="M845 900 c-14 -16 -16 -23 -7 -32 10 -10 17 -7 33 9 12 11 18 26 15
32 -10 16 -21 14 -41 -9z"/>
<path d="M695 861 c-65 -28 -82 -118 -32 -168 22 -22 37 -28 72 -28 126 0 139
184 14 200 -18 3 -43 1 -54 -4z m85 -51 c11 -11 20 -31 20 -45 0 -14 -9 -34
-20 -45 -11 -11 -31 -20 -45 -20 -14 0 -34 9 -45 20 -11 11 -20 31 -20 45 0
14 9 34 20 45 11 11 31 20 45 20 14 0 34 -9 45 -20z"/>
<path d="M525 770 c-11 -18 10 -32 41 -28 40 4 38 32 -3 36 -17 2 -34 -2 -38
-8z" />
<path d="M875 770 c-11 -18 10 -32 41 -28 40 4 38 32 -3 36 -17 2 -34 -2 -38
-8z"/>
<path d="M595 650 c-14 -16 -16 -23 -7 -32 10 -10 17 -7 33 9 12 11 18 26 15
32 -10 16 -21 14 -41 -9z"/>
<path d="M834 659 c-3 -6 3 -21 15 -32 16 -16 23 -19 33 -9 9 9 7 16 -7 32
-20 23 -31 25 -41 9z"/>
<path d="M724 617 c-9 -25 0 -62 16 -62 10 0 15 10 15 34 0 36 -21 54 -31 28z"/>
</g>
<g transform="translate(0.000000,100.000000) scale(0.100000,-0.100000)"
fill="#61AFEF" stroke="none">
<path d="M212 609 c-114 -57 -172 -150 -172 -278 0 -121 68 -223 184 -277 49
-23 61 -24 276 -24 214 0 227 1 264 23 22 12 53 39 70 60 29 36 31 45 31 116
0 66 -4 83 -25 113 -33 48 -94 86 -150 94 -42 6 -48 10 -70 50 -74 140 -262
197 -408 123z m238 -56 c50 -20 105 -78 130 -134 20 -48 21 -49 66 -49 24 0
60 -6 78 -14 99 -41 106 -185 12 -242 -28 -17 -53 -19 -231 -19 -224 0 -254 6
-317 63 -101 92 -110 234 -21 333 75 83 178 106 283 62z"/>
</g>
</svg>

