<?xml version="1.0" standalone="no"?>
<!DOCTYPE svg PUBLIC "-//W3C//DTD SVG 20010904//EN"
 "http://www.w3.org/TR/2001/REC-SVG-20010904/DTD/svg10.dtd">
<svg version="1.0" xmlns="http://www.w3.org/2000/svg"
 width="100.000000pt" height="100.000000pt" viewBox="0 0 100.000000 100.000000"
 preserveAspectRatio="xMidYMid meet">

<g transform="translate(0.000000,100.000000) scale(0.100000,-0.100000)"
fill="#E5C07B" stroke="none">
<path d="M665 941 c-154 -71 -150 -280 7 -346 100 -41 217 17 249 126 15 48 8
56 -34 41 -60 -22 -96 -15 -134 23 -32 32 -35 39 -30 78 3 23 8 54 12 70 9 33
-10 36 -70 8z m20 -84 c0 -89 69 -153 156 -145 21 2 39 0 39 -5 0 -5 -15 -24
-33 -42 -106 -106 -281 -10 -253 140 6 32 63 105 82 105 5 0 9 -24 9 -53z"/>
</g>
<g transform="translate(0.000000,100.000000) scale(0.100000,-0.100000)"
fill="#61AFEF" stroke="none">
<path d="M212 609 c-114 -57 -172 -150 -172 -278 0 -121 68 -223 184 -277 49
-23 61 -24 276 -24 214 0 227 1 264 23 22 12 53 39 70 60 29 36 31 45 31 116
0 66 -4 83 -25 113 -33 48 -94 86 -150 94 -42 6 -48 10 -70 50 -74 140 -262
197 -408 123z m238 -56 c50 -20 105 -78 130 -134 20 -48 21 -49 66 -49 24 0
60 -6 78 -14 99 -41 106 -185 12 -242 -28 -17 -53 -19 -231 -19 -224 0 -254 6
-317 63 -101 92 -110 234 -21 333 75 83 178 106 283 62z"/>
</g>
</svg>

