<?xml version="1.0" standalone="no"?>
<!DOCTYPE svg PUBLIC "-//W3C//DTD SVG 20010904//EN"
 "http://www.w3.org/TR/2001/REC-SVG-20010904/DTD/svg10.dtd">
<svg version="1.0" xmlns="http://www.w3.org/2000/svg"
 width="100.000000pt" height="100.000000pt" viewBox="0 0 100.000000 100.000000"
 preserveAspectRatio="xMidYMid meet">

<g transform="translate(0.000000,100.000000) scale(0.100000,-0.100000)"
fill="#61AFEF" stroke="none">
<path d="M280 854 c-106 -28 -191 -101 -239 -204 -22 -47 -26 -69 -26 -150 0
-81 4 -103 26 -150 50 -106 134 -176 248 -205 51 -14 106 -16 294 -13 216 3
235 5 273 25 48 25 101 82 120 129 31 74 12 179 -44 244 -42 50 -93 77 -160
86 -44 6 -52 10 -63 37 -37 90 -140 174 -244 202 -72 18 -113 18 -185 -1z
m196 -75 c90 -34 135 -82 194 -209 5 -10 28 -17 72 -21 79 -7 131 -36 158 -90
45 -86 13 -192 -69 -236 -42 -22 -53 -23 -272 -23 -209 0 -233 2 -285 21 -119
45 -194 149 -194 270 0 85 22 147 72 204 86 97 206 128 324 84z"/>
</g>
</svg>
