<?xml version="1.0" standalone="no"?>
<!DOCTYPE svg PUBLIC "-//W3C//DTD SVG 20010904//EN"
 "http://www.w3.org/TR/2001/REC-SVG-20010904/DTD/svg10.dtd">
<svg version="1.0" xmlns="http://www.w3.org/2000/svg"
 width="100.000000pt" height="100.000000pt" viewBox="0 0 100.000000 100.000000"
 preserveAspectRatio="xMidYMid meet">

<g transform="translate(0.000000,100.000000) scale(0.100000,-0.100000)"
fill="#61AFEF" stroke="none">
<path d="M273 936 c-100 -33 -195 -114 -236 -204 -18 -38 -22 -66 -22 -147 0
-89 3 -106 28 -157 36 -72 100 -140 130 -136 37 5 31 35 -16 88 -55 61 -77
122 -77 210 0 157 116 278 275 288 133 8 239 -57 296 -184 l29 -64 58 0 c109
0 174 -59 180 -163 3 -53 0 -67 -20 -97 -13 -19 -40 -46 -61 -59 -39 -25 -47
-50 -23 -70 11 -10 23 -8 53 7 138 71 166 268 53 380 -44 44 -82 63 -144 69
-51 5 -53 6 -80 59 -35 67 -101 128 -174 162 -68 31 -184 39 -249 18z"/>
</g>
<g transform="translate(0.000000,100.000000) scale(0.100000,-0.100000)"
fill="#88C0D0" stroke="none">
<path d="M311 356 c-17 -20 -4 -56 18 -56 28 0 47 28 34 48 -14 23 -37 26 -52
8z"/>
<path d="M644 356 c-15 -12 -17 -18 -8 -33 15 -24 58 -24 62 0 4 18 -14 47
-27 47 -4 0 -16 -6 -27 -14z"/>
<path d="M474 266 c-10 -26 4 -48 28 -44 17 2 23 10 23 28 0 18 -6 26 -23 28
-13 2 -25 -3 -28 -12z"/>
<path d="M312 191 c-18 -11 -12 -41 10 -55 14 -8 22 -7 35 7 29 29 -10 71 -45
48z"/>
<path d="M641 186 c-9 -11 -10 -20 -1 -36 13 -24 38 -23 53 1 23 37 -25 68
-52 35z"/>
<path d="M482 111 c-8 -4 -12 -19 -10 -32 4 -34 52 -34 56 0 5 32 -20 49 -46
32z"/>
</g>
</svg>

