<?xml version="1.0" standalone="no"?>
<!DOCTYPE svg PUBLIC "-//W3C//DTD SVG 20010904//EN"
 "http://www.w3.org/TR/2001/REC-SVG-20010904/DTD/svg10.dtd">
<svg version="1.0" xmlns="http://www.w3.org/2000/svg"
 width="100.000000pt" height="100.000000pt" viewBox="0 0 100.000000 100.000000"
 preserveAspectRatio="xMidYMid meet">

<g transform="translate(0.000000,100.000000) scale(0.100000,-0.100000)"
fill="#000000" stroke="none">
<path d="M17 983 c-17 -17 -2 -43 65 -110 l72 -73 -46 -47 c-71 -73 -102 -148
-102 -253 -1 -72 4 -94 26 -143 38 -80 114 -158 191 -193 l62 -29 269 -2 269
-2 62 -61 c41 -41 69 -61 81 -58 53 10 29 38 -442 509 -258 258 -476 469 -485
469 -9 0 -19 -3 -22 -7z m723 -776 c0 -5 -100 -7 -222 -5 -221 3 -224 3 -280
31 -107 53 -162 143 -163 267 0 62 5 85 28 132 15 31 44 71 64 88 l36 32 268
-268 c148 -148 269 -273 269 -277z"/>
<path d="M379 854 c-19 -24 0 -46 52 -59 98 -26 189 -99 218 -175 23 -64 25
-65 93 -71 128 -11 182 -75 176 -208 -3 -75 -3 -76 22 -76 32 0 50 35 50 99 0
68 -18 120 -58 166 -42 49 -93 77 -159 85 -47 7 -50 9 -77 61 -29 56 -97 123
-151 152 -29 15 -119 42 -141 42 -6 0 -17 -7 -25 -16z"/>
</g>
</svg>
