<?xml version="1.0" standalone="no"?> <!DOCTYPE svg PUBLIC "-//W3C//DTD SVG 20010904//EN" "http://www.w3.org/TR/2001/REC-SVG-20010904/DTD/svg10.dtd"> <svg version="1.0" xmlns="http://www.w3.org/2000/svg" width="100.000000pt" height="100.000000pt" viewBox="0 0 100.000000 100.000000" preserveAspectRatio="xMidYMid meet"> <g transform="translate(0.000000,100.000000) scale(0.100000,-0.100000)" fill="#F5F5F5" stroke="none"> <path d="M380 891 c-71 -23 -125 -57 -177 -114 -150 -163 -146 -406 11 -563 167 -166 427 -160 589 16 78 84 129 229 92 260 -14 11 -25 9 -75 -15 -229 -109 -450 110 -345 342 23 52 25 66 15 78 -16 19 -41 18 -110 -4z m8 -102 c-18 -52 -5 -177 24 -234 57 -110 163 -175 285 -175 39 0 83 4 97 10 35 13 34 -1 -4 -66 -103 -180 -357 -216 -514 -73 -81 74 -111 141 -111 249 0 67 5 95 22 133 33 72 79 124 137 157 67 39 78 39 64 -1z"/> </g> </svg>
