<?xml version="1.0" standalone="no"?> <!DOCTYPE svg PUBLIC "-//W3C//DTD SVG 20010904//EN" "http://www.w3.org/TR/2001/REC-SVG-20010904/DTD/svg10.dtd"> <svg version="1.0" xmlns="http://www.w3.org/2000/svg" width="100.000000pt" height="100.000000pt" viewBox="0 0 100.000000 100.000000" preserveAspectRatio="xMidYMid meet"> <g transform="translate(0.000000,100.000000) scale(0.100000,-0.100000)" fill="#F5F5F5" stroke="none"> <path d="M253 971 c-65 -24 -97 -46 -152 -106 -69 -75 -86 -123 -86 -240 0 -88 3 -106 27 -155 33 -67 109 -145 132 -137 32 12 29 37 -9 78 -91 101 -112 232 -54 347 53 106 144 162 265 162 59 0 81 -5 132 -31 71 -35 105 -72 140 -149 14 -30 27 -57 29 -60 2 -2 36 -7 74 -11 78 -7 109 -24 147 -80 20 -29 23 -44 20 -96 -4 -71 -23 -104 -81 -142 -41 -27 -48 -55 -18 -71 31 -16 109 43 144 110 78 149 -22 334 -187 348 -52 4 -53 5 -75 53 -29 60 -115 143 -178 171 -69 31 -200 35 -270 9z"/> <path d="M307 483 c-4 -3 -7 -88 -7 -188 0 -154 2 -185 16 -196 11 -9 20 -10 32 -2 15 9 17 35 20 188 2 122 -1 182 -9 191 -12 15 -41 19 -52 7z"/> <path d="M642 478 c-9 -9 -12 -62 -12 -189 0 -149 2 -179 16 -190 11 -9 20 -10 32 -2 15 9 17 34 17 199 0 182 -1 189 -20 192 -11 1 -26 -3 -33 -10z"/> <path d="M475 398 c-3 -8 -4 -97 -3 -198 l3 -185 25 0 25 0 0 195 c0 195 0 195 -23 198 -12 2 -24 -3 -27 -10z"/> </g> </svg>
