<?xml version="1.0" standalone="no"?> <!DOCTYPE svg PUBLIC "-//W3C//DTD SVG 20010904//EN" "http://www.w3.org/TR/2001/REC-SVG-20010904/DTD/svg10.dtd"> <svg version="1.0" xmlns="http://www.w3.org/2000/svg" width="100.000000pt" height="100.000000pt" viewBox="0 0 100.000000 100.000000" preserveAspectRatio="xMidYMid meet"> <g transform="translate(0.000000,100.000000) scale(0.100000,-0.100000)" fill="#F5F5F5" stroke="none"> <path d="M253 971 c-65 -24 -97 -46 -152 -106 -69 -75 -86 -123 -86 -240 0 -89 3 -106 28 -157 30 -62 135 -168 166 -168 25 0 45 25 34 43 -4 8 -28 30 -53 49 -29 22 -56 56 -77 97 -28 54 -33 73 -33 135 0 171 125 296 296 296 59 0 81 -5 132 -31 71 -35 105 -72 140 -149 14 -30 27 -57 29 -60 2 -2 36 -7 74 -11 77 -7 109 -24 146 -79 16 -23 23 -48 23 -82 0 -87 -41 -147 -117 -173 -29 -10 -39 -19 -41 -38 -5 -40 29 -44 94 -12 92 45 140 130 132 235 -8 115 -99 208 -212 218 -52 4 -53 5 -75 53 -29 60 -115 143 -178 171 -69 31 -200 35 -270 9z"/> <path d="M532 573 c-7 -3 -53 -66 -103 -140 -115 -171 -115 -171 27 -175 l104 -3 -69 -104 c-56 -84 -68 -108 -60 -123 22 -40 45 -20 138 120 50 76 91 143 91 149 0 23 -39 33 -129 33 l-91 0 70 105 c38 58 67 112 64 120 -7 16 -24 24 -42 18z"/> </g> </svg>
