<?xml version="1.0" standalone="no"?> <!DOCTYPE svg PUBLIC "-//W3C//DTD SVG 20010904//EN" "http://www.w3.org/TR/2001/REC-SVG-20010904/DTD/svg10.dtd"> <svg version="1.0" xmlns="http://www.w3.org/2000/svg" width="100.000000pt" height="100.000000pt" viewBox="0 0 100.000000 100.000000" preserveAspectRatio="xMidYMid meet"> <g transform="translate(0.000000,100.000000) scale(0.100000,-0.100000)" fill="#F5F5F5" stroke="none"> <path d="M410 853 c-66 -34 -49 -86 20 -63 38 13 42 12 63 -8 20 -21 21 -24 7 -50 l-16 -27 -214 -6 c-118 -3 -216 -6 -217 -7 -2 -1 -3 -10 -3 -21 0 -39 19 -42 239 -39 239 3 254 8 279 85 11 35 11 46 -2 76 -26 64 -96 91 -156 60z"/> <path d="M748 724 c-39 -21 -52 -49 -32 -68 19 -19 24 -19 48 -1 27 21 79 19 99 -3 24 -26 21 -75 -4 -98 -20 -18 -46 -19 -413 -24 l-391 -5 0 -25 0 -25 398 -3 c440 -3 439 -3 477 61 71 116 -63 256 -182 191z"/> <path d="M61 356 c-7 -8 -10 -24 -6 -36 6 -19 13 -20 271 -20 164 0 273 -4 285 -10 22 -12 27 -64 7 -76 -7 -4 -28 -10 -48 -14 -43 -7 -54 -42 -20 -60 60 -32 150 35 150 110 0 32 -7 48 -34 78 l-34 37 -280 3 c-238 2 -281 1 -291 -12z"/> </g> </svg>
